<?xml version="1.0" standalone="no"?>
<!DOCTYPE svg PUBLIC "-//W3C//DTD SVG 20010904//EN"
 "http://www.w3.org/TR/2001/REC-SVG-20010904/DTD/svg10.dtd">
<svg version="1.0" xmlns="http://www.w3.org/2000/svg"
 width="162.000000pt" height="60.000000pt" viewBox="0 0 162.000000 60.000000"
 preserveAspectRatio="xMidYMid meet">

<g transform="translate(0.000000,60.000000) scale(0.100000,-0.100000)"
fill="#000000" stroke="none">
<path d="M590 133 c0 -36 0 -36 19 -17 12 13 15 21 7 27 -8 5 -6 10 4 17 12 8
11 10 -7 10 -20 0 -23 -5 -23 -37z"/>
<path d="M646 148 c-10 -37 -7 -43 19 -43 28 0 29 3 15 39 -12 32 -26 33 -34
4z"/>
<path d="M701 152 c-12 -23 4 -52 29 -52 11 0 20 5 20 10 0 6 -9 10 -20 10
-11 0 -20 7 -20 15 0 8 9 15 20 15 11 0 20 5 20 10 0 17 -39 11 -49 -8z"/>
<path d="M763 140 c2 -28 6 -35 22 -35 16 0 20 7 22 35 1 27 0 30 -5 12 -9
-30 -25 -30 -34 0 -5 18 -6 15 -5 -12z"/>
<path d="M820 135 c0 -34 1 -35 40 -35 44 0 65 22 49 52 -14 27 -39 22 -39 -7
0 -16 -6 -25 -15 -25 -9 0 -15 9 -15 25 0 14 -4 25 -10 25 -5 0 -10 -16 -10
-35z m80 0 c0 -8 -4 -15 -10 -15 -5 0 -10 7 -10 15 0 8 5 15 10 15 6 0 10 -7
10 -15z"/>
<path d="M930 144 c-6 -14 -10 -28 -10 -32 0 -12 83 -12 97 -1 9 8 13 8 13 0
0 -6 9 -11 20 -11 11 0 20 5 20 10 0 6 -6 10 -12 10 -10 0 -9 3 1 9 11 7 11 9
0 14 -12 4 -11 7 1 16 12 9 11 11 -7 11 -13 0 -23 -5 -23 -12 0 -9 -3 -9 -12
0 -21 21 -37 13 -41 -20 l-3 -33 -8 33 c-10 39 -23 41 -36 6z m80 -9 c0 -8 -4
-15 -10 -15 -5 0 -10 7 -10 15 0 8 5 15 10 15 6 0 10 -7 10 -15z"/>
<path d="M1100 134 c0 -21 4 -33 10 -29 6 3 10 17 10 31 0 34 20 20 21 -14 l2
-27 4 25 c3 14 10 31 15 38 8 9 2 12 -26 12 -35 0 -36 -1 -36 -36z"/>
<path d="M1180 144 c-15 -38 -13 -40 30 -41 31 -2 40 2 40 15 1 16 1 16 11 0
16 -29 29 -21 29 17 0 19 -4 35 -10 35 -5 0 -10 -5 -10 -12 0 -9 -3 -9 -12 0
-20 20 -28 14 -29 -20 l-1 -33 -10 33 c-13 39 -25 41 -38 6z"/>
<path d="M1300 135 c0 -36 1 -38 15 -19 13 17 14 17 15 2 0 -13 9 -17 40 -15
37 1 39 3 33 27 -12 51 -26 54 -41 8 l-10 -33 -1 33 c-1 33 -21 46 -21 15 -1
-16 -2 -16 -15 1 -14 19 -15 17 -15 -19z"/>
<path d="M1420 135 l0 -36 58 4 c31 1 56 6 55 10 -2 4 -3 18 -3 32 0 14 -4 25
-10 25 -5 0 -10 -7 -10 -15 0 -8 -4 -15 -10 -15 -5 0 -10 7 -10 15 0 8 -4 15
-10 15 -5 0 -10 -11 -10 -25 0 -20 -5 -25 -22 -24 -20 1 -20 2 -4 6 15 4 16 7
5 14 -12 8 -12 11 1 19 12 8 11 10 -7 10 -20 0 -23 -5 -23 -35z"/>
</g>
</svg>
